# AST/ASF file generated using VICON BodyLanguage
# -----------------------------------------------
:version 1.10
:name VICON
:units
  mass 1.0
  length 0.45
  angle deg
:documentation
   .ast/.asf automatically generated from VICON data using
   VICON BodyBuilder and BodyLanguage model FoxedUp or BRILLIANT.MOD
:root
   order TX TY TZ RX RY RZ
   axis XYZ
   position 0 0 0  
   orientation 0 0 0 
:bonedata
  begin
     id 1 
     name lhipjoint
     direction 0.822369 -0.411937 0.392449 
     length 3.8167 
     axis 0 0 0  XYZ
  end
  begin
     id 2 
     name lfemur
     direction 0.34202 -0.939693 0  
     length 6.16791  
     axis 0 0 20  XYZ
    dof rx ry rz
    limits (-160.0 20.0)
           (-70.0 70.0)
           (-60.0 70.0)
  end
  begin
     id 3 
     name ltibia
     direction 0.34202 -0.939693 0   
     length 7.07101   
     axis 0 0 20   XYZ
    dof rx
    limits (-10.0 170.0)
  end
  begin
     id 4 
     name lfoot
     direction 0.028254 -0.0776273 0.996582   
     length 1.66799   
     axis -90 7.62852e-016 20   XYZ
    dof rx rz
    limits (-45.0 90.0)
           (-70.0 20.0)
  end
  begin
     id 5 
     name ltoes
     direction 1.53483e-011 -4.21688e-011 1   
     length 0.851674   
     axis -90 7.62852e-016 20   XYZ
    dof rx
    limits (-90.0 20.0)
  end
  begin
     id 6 
     name rhipjoint
     direction -0.822466 -0.411836 0.392353   
     length 3.81764  
     axis 0 0 0  XYZ 
  end
  begin
     id 7 
     name rfemur
     direction -0.34202 -0.939693 0   
     length 6.28636   
     axis 0 0 -20   XYZ
    dof rx ry rz
    limits (-160.0 20.0)
           (-70.0 70.0)
           (-70.0 60.0)
  end
  begin
     id 8 
     name rtibia
     direction -0.34202 -0.939693 0   
     length 6.85621   
     axis 0 0 -20   XYZ
    dof rx
    limits (-10.0 170.0)
 end
 begin
     id 9 
     name rfoot
     direction -0.0553036 -0.151945 0.98684   
     length 1.57293  
     axis -90 -7.62852e-016 -20   XYZ
    dof rx rz
    limits (-45.0 90.0)
           (-20.0 70.0)
  end
  begin
     id 10 
     name rtoes
     direction -1.53592e-011 -4.21964e-011 1   
     length 0.802812   
     axis -90 -7.62852e-016 -20   XYZ
    dof rx
    limits (-90.0 20.0)
  end
  begin
     id 11 
     name lowerback
     direction 0.00654913 0.996475 -0.0836396   
     length 1.97212   
     axis 0 0 0   XYZ
    dof rx ry rz
    limits (-20.0 45.0)
           (-30.0 30.0)
           (-30.0 30.0)
  end
  begin
     id 12 
     name upperback
     direction 0.0111875 0.994527 0.103877   
     length 1.89704   
     axis 0 0 0   XYZ
    dof rx ry rz
    limits (-20.0 45.0)
           (-30.0 30.0)
           (-30.0 30.0)
  end
  begin
     id 13 
     name thorax
     direction 0.00473652 0.989004 0.147814   
     length 1.94516   
     axis 0 0 0   XYZ
    dof rx ry rz
    limits (-20.0 45.0)
           (-30.0 30.0)
           (-30.0 30.0)
  end
  begin
     id 14 
     name lowerneck
     direction -0.00925808 0.999011 0.0434791   
     length 1.81771   
     axis 0 0 0   XYZ
    dof rx ry rz
    limits (-20.0 45.0)
           (-30.0 30.0)
           (-30.0 30.0)
  end
  begin
     id 15 
     name upperneck
     direction 0.00451595 0.964412 -0.264365   
     length 1.80434   
     axis 0 0 0   XYZ
    dof rx ry rz
    limits (-20.0 45.0)
           (-30.0 30.0)
           (-30.0 30.0)
  end
  begin
     id 16
     name head
     direction -0.00110849 0.995756 -0.0920241  
     length 1.84006  
     axis 0 0 0   XYZ
    dof rx ry rz
    limits (-20.0 45.0)
           (-30.0 30.0)
           (-30.0 30.0)
  end
  begin
     id 17 
     name lclavicle
     direction 0.921253 0.385213 0.0538957  
     length 3.67415  
     axis 0 0 0   XYZ
    dof ry rz
    limits (-20.0 10.0)
           (0.0 20.0)
  end
  begin
     id 18 
     name lhumerus
     direction 1 -4.48961e-011 6.73441e-028   
     length 4.32712   
     axis 180 -30 -90   XYZ
    dof rx ry rz
    limits (-60.0 90.0)
           (-90.0 90.0)
           (-90.0 90.0)
  end
  begin
     id 19
     name lradius
     direction 1 -4.48985e-011 -9.53507e-028   
     length 3.28587   
     axis 180 -30 -90   XYZ
    dof rx
    limits (-10.0 170.0)
  end
  begin
     id 20
     name lwrist
     direction 1 -4.48951e-011 -4.67472e-027   
     length 1.64293   
     axis 1.65735e-015 90 90   XYZ
    dof ry
    limits (-180.0 0.0)
 end
  begin
     id 21 
     name lhand
     direction 1 -4.48946e-011 -9.34945e-027   
     length 0.433158   
     axis 5.96574e-015 90 90   XYZ
    dof rx rz
    limits (-90.0 90.0)
           (-45.0 45.0)
  end
  begin
     id 22 
     name lfingers
     direction 1 -4.48882e-011 -1.86989e-026   
     length 0.349224   
     axis 1.19315e-014 90 90   XYZ
    dof rx
    limits (0.0 90.0)
  end
  begin
     id 23
     name lthumb
     direction 0.707107 -6.3493e-011 0.707107   
     length 0.501417   
     axis -90 45 2.85299e-015   XYZ
    dof rx rz
    limits (-45.0 45.0)
           (-45.0 45.0)
  end
  begin
     id 24 
     name rclavicle
     direction -0.884378 0.46502 -0.0403866   
     length 3.50218  
     axis 0 0 0   XYZ 
    dof ry rz
    limits (-10.0 20.0)
           (-20.0 0.0)
  end
  begin
     id 25 
     name rhumerus
     direction -1 -4.48964e-011 1.58188e-027  
     length 4.29104   
     axis 180 30 90   XYZ
    dof rx ry rz
    limits (-90.0 60.0)
           (-90.0 90.0)
           (-90.0 90.0)
  end
  begin
     id 26 
     name rradius
     direction -1 -4.48978e-011 -1.9722e-027   
     length 3.2272   
     axis 180 30 90   XYZ
    dof rx
    limits (-10.0 170.0)
  end
  begin
     id 27 
     name rwrist
     direction -1 -4.48969e-011 -4.67472e-027   
     length 1.6136   
     axis 1.65735e-015 -90 -90   XYZ
    dof ry
    limits (-180.0 0.0)
  end
  begin
     id 28
     name rhand
     direction -1 -4.48846e-011 -9.34945e-027   
     length 0.543623   
     axis 5.96574e-015 -90 -90   XYZ
    dof rx rz
    limits (-90.0 90.0)
           (-45.0 45.0)
  end
  begin
     id 29
     name rfingers
     direction -1 -4.49074e-011 -1.86989e-026   
     length 0.438283   
     axis 1.19315e-014 -90 -90   XYZ
    dof rx
    limits (0.0 90.0)
  end
  begin
     id 30
     name rthumb
     direction -0.707107 -6.34834e-011 0.707107   
     length 0.629289   
     axis -90 -45 -2.85299e-015   XYZ
    dof rx rz
    limits (-45.0 45.0)
           (-45.0 45.0)
  end
:hierarchy
  begin
    root lhipjoint rhipjoint lowerback
    lhipjoint lfemur
    lfemur ltibia
    ltibia lfoot
    lfoot ltoes
    rhipjoint rfemur
    rfemur rtibia
    rtibia rfoot
    rfoot rtoes
    lowerback upperback
    upperback thorax
    thorax lowerneck lclavicle rclavicle
    lowerneck upperneck
    upperneck head
    lclavicle lhumerus
    lhumerus lradius
    lradius lwrist
    lwrist lhand lthumb
    lhand lfingers
    rclavicle rhumerus
    rhumerus rradius
    rradius rwrist
    rwrist rhand rthumb
    rhand rfingers
  end

#!OML:ASF H:\GeneralSubjects\Female5\Project 1\Capture day 1\Session 1\Female5.ASF
:FULLY-SPECIFIED
:DEGREES
84
root -35.9896 16.3138 2.20598 -167.635 2.63335 -176.02
lowerback 6.73031 -0.891309 -5.35028
upperback -9.68124 -0.249901 6.04424
thorax -14.5352 1.34168 9.85471
lowerneck -17.3836 -1.26939 0.515471
upperneck 29.7206 1.8732 -6.57812
head 12.898 0.663138 -2.18409
rclavicle 4.12478e-014 -9.14409e-014
rhumerus -48.6356 29.258 -86.982
rradius 31.8234
rwrist -15.2405
rhand -24.8215 -24.0248
rfingers 7.12502
rthumb 1.68398 -53.9979
lclavicle 4.12478e-014 -9.14409e-014
lhumerus -49.9141 6.74988 81.2394
lradius 33.4238
lwrist -4.25165
lhand -19.7739 25.4504
lfingers 7.12502
lthumb 6.55809 55.3288
rfemur -3.92023 27.3212 32.4612
rtibia -2.57149
rfoot -26.7141 -33.1535
rtoes -7.90561
lfemur -3.70374 -39.6792 -22.5895
ltibia -2.67573
lfoot -37.5888 -15.7026
ltoes -7.99508
85
root -35.9673 16.3278 2.21741 -167.432 2.99868 -176.063
lowerback 6.79797 -0.837477 -5.38537
upperback -9.66804 -0.202407 5.99117
thorax -14.5731 1.36018 9.80769
lowerneck -17.6242 -1.39752 0.667518
upperneck 29.887 1.6369 -6.5785
head 13.0053 0.565104 -2.25613
rclavicle 6.26172e-015 -2.3059e-014
rhumerus -48.6462 29.2254 -86.9524
rradius 32.1392
rwrist -15.6373
rhand -24.9208 -23.99
rfingers 7.12502
rthumb 1.58802 -53.9638
lclavicle 6.26172e-015 -2.3059e-014
lhumerus -49.8734 6.39355 81.3236
lradius 33.513
lwrist -4.32998
lhand -20.4584 26.0839
lfingers 7.12502
lthumb 5.89727 55.9818
rfemur -5.49729 23.8759 32.1532
rtibia -0.894171
rfoot -24.4931 -31.1207
rtoes -12.4431
lfemur -4.12063 -39.4342 -22.3193
ltibia -2.47065
lfoot -37.7364 -16.1217
ltoes -7.8607
86
root -35.941 16.3399 2.22915 -167.249 3.4113 -176.163
lowerback 6.87549 -0.772867 -5.48483
upperback -9.64172 -0.156978 5.92316
thorax -14.6019 1.38047 9.78159
lowerneck -17.8407 -1.51786 0.758459
upperneck 30.0712 1.40538 -6.4905
head 13.1144 0.475959 -2.28282
rclavicle 1.61016e-014 -3.89618e-014
rhumerus -48.6578 29.1499 -86.8835
rradius 32.4764
rwrist -16.0371
rhand -25.0975 -23.8705
rfingers 7.12502
rthumb 1.41743 -53.8455
lclavicle 1.61016e-014 -3.89618e-014
lhumerus -49.7883 6.02464 81.4065
lradius 33.5566
lwrist -4.31119
lhand -21.3825 26.891
lfingers 7.12502
lthumb 5.00504 56.8119
rfemur -6.94034 21.0798 31.9404
rtibia 0.862576
rfoot -23.9272 -29.4824
rtoes -14.4453
lfemur -4.47394 -39.2098 -22.1415
ltibia -2.27875
lfoot -37.9112 -16.6834
ltoes -7.86698
87
root -35.9094 16.348 2.24065 -167.103 3.85082 -176.33
lowerback 6.96578 -0.706414 -5.65115
upperback -9.60552 -0.128406 5.82964
thorax -14.624 1.39488 9.76844
lowerneck -18.0227 -1.63328 0.794146
upperneck 30.281 1.16755 -6.29479
head 13.2262 0.394773 -2.25892
rclavicle 9.24349e-015 3.97569e-014
rhumerus -48.672 29.0132 -86.788
rradius 32.7997
rwrist -16.382
rhand -25.2782 -23.6421
rfingers 7.12502
rthumb 1.24287 -53.6182
lclavicle 9.24349e-015 3.97569e-014
lhumerus -49.6625 5.64298 81.4435
lradius 33.5414
lwrist -4.27982
lhand -22.1586 27.5358
lfingers 7.12502
lthumb 4.25559 57.473
rfemur -8.19831 18.77 31.7989
rtibia 2.5669
rfoot -24.5695 -28.3615
rtoes -14.3431
lfemur -4.73093 -39.0216 -22.081
ltibia -2.10014
lfoot -38.0701 -17.411
ltoes -8.07635
88
root -35.8718 16.3513 2.2513 -166.999 4.2934 -176.553
lowerback 7.06625 -0.647625 -5.85383
upperback -9.56871 -0.123404 5.70845
thorax -14.6467 1.39831 9.74911
lowerneck -18.109 -1.72079 0.73736
upperneck 30.5146 0.951258 -5.92302
head 13.3287 0.34167 -2.14461
rclavicle 1.92821e-014 -1.20066e-013
rhumerus -48.6935 28.7885 -86.6607
rradius 33.0733
rwrist -16.5988
rhand -25.3589 -23.3223
rfingers 7.12502
rthumb 1.16491 -53.2989
lclavicle 1.92821e-014 -1.20066e-013
lhumerus -49.5117 5.2306 81.4261
lradius 33.4669
lwrist -4.25851
lhand -22.7602 28.007
lfingers 7.12502
lthumb 3.67469 57.9551
rfemur -9.19987 16.938 31.7299
rtibia 4.05779
rfoot -26.1255 -27.7666
rtoes -12.6642
lfemur -4.89087 -38.8569 -22.119
ltibia -1.93666
lfoot -38.152 -18.2843
ltoes -8.53871
89
root -35.828 16.3502 2.26036 -166.929 4.72078 -176.809
lowerback 7.16358 -0.609642 -6.03675
upperback -9.53838 -0.150148 5.55438
thorax -14.6666 1.38099 9.68535
lowerneck -18.1099 -1.78819 0.602368
upperneck 30.78 0.749815 -5.3987
head 13.4282 0.31254 -1.95222
rclavicle 4.57205e-015 -4.85035e-014
rhumerus -48.7483 28.4726 -86.521
rradius 33.3043
rwrist -16.679
rhand -25.3055 -22.9229
rfingers 7.12502
rthumb 1.21648 -52.8991
lclavicle 4.57205e-015 -4.85035e-014
lhumerus -49.3446 4.80108 81.3185
lradius 33.3358
lwrist -4.2656
lhand -23.1973 28.3081
lfingers 7.12502
lthumb 3.25252 58.2631
rfemur -9.96296 15.3007 31.7277
rtibia 5.26464
rfoot -27.9254 -27.4685
rtoes -10.6853
lfemur -4.97193 -38.6789 -22.2126
ltibia -1.79706
lfoot -38.1299 -19.2142
ltoes -9.15272
